<svg width="107" height="100" viewBox="0 0 107 100" fill="none" xmlns="http://www.w3.org/2000/svg">
<path d="M58.0492 15.8884C58.5558 15.8884 58.9779 15.8884 59.4 15.9728C59.8221 16.0572 60.413 16.3949 60.7507 16.4793H63.8743C63.9869 16.3386 64.2626 16.0741 64.4652 16.1417C64.7185 16.2261 68.0109 17.1547 68.0109 17.3235C68.0109 17.4924 69.024 17.9989 69.1084 18.0833C69.1928 18.1678 70.1214 18.5054 70.3747 18.5899C70.5773 18.6574 73.048 18.7868 74.2581 18.8431L78.2259 19.7718C78.9012 19.8562 80.4377 19.9068 81.1806 19.4341C82.1092 18.8431 86.3303 18.7587 87.3433 19.0964C88.3564 19.4341 97.1361 17.5768 97.5582 17.7457C97.8959 17.8807 97.9241 18.3647 97.8959 18.5899C98.2899 18.7024 99.0947 18.86 99.1622 18.5899C99.2467 18.2522 99.4999 17.7457 100.091 17.7457C100.682 17.7457 103.721 17.3235 104.396 17.7457C105.072 18.1678 106.085 18.9275 106.085 19.0964C106.085 19.2652 106.169 19.3496 105.747 19.4341C105.325 19.5185 103.721 19.012 103.468 19.4341C103.214 19.8562 102.201 19.7718 101.442 20.5315C100.766 20.7004 100.26 20.9536 100.597 21.2913C100.935 21.629 101.948 21.3758 101.948 21.629C101.948 21.8823 102.117 22.3044 101.779 22.3888C101.442 22.4732 100.429 23.5707 99.1622 22.9797C97.8959 22.3888 97.3894 22.3044 97.2206 22.9797C97.0627 23.6114 95.2804 24.3906 95.1882 24.489C95.2093 24.4955 95.2125 24.4993 95.1945 24.4993C95.1835 24.4993 95.1818 24.4958 95.1882 24.489C95.0117 24.4348 93.5846 24.1978 92.8307 24.4993C91.9865 24.837 83.6288 28.045 80.252 28.4671C76.8751 28.8892 71.641 30.0711 70.3747 30.0711C69.1084 30.0711 68.8551 30.3244 68.8551 30.9997C68.8551 31.6751 67.5044 33.1103 67.2511 33.4479C66.9979 33.7856 67.2511 34.461 67.2511 35.474C67.2511 36.4871 67.5044 38.9353 68.0109 39.8639C68.5174 40.7926 71.3878 44.4227 71.3878 45.3513V47.5462C71.3878 48.8125 72.5697 50.3321 72.5697 51.3452C72.5697 52.3582 73.5827 54.0466 73.6671 54.5532C73.7515 55.0597 73.9204 58.5209 72.8229 59.534C71.7254 60.547 70.9657 63.0797 70.5436 62.9108C70.1215 62.742 71.1345 64.0083 71.0501 64.9369C70.9657 65.8656 71.5566 74.8142 71.0501 75.7428C70.5436 76.6714 70.8167 77.0502 70.5436 77.9377C70.2059 79.0352 69.9526 82.1588 70.7968 82.6653C71.641 83.1718 72.9917 83.1718 73.3294 83.9316C73.6671 84.6914 73.7515 85.1979 73.6671 85.5356C73.5827 85.8733 73.9988 86.6331 72.8229 86.6331C71.3033 86.6331 68.6019 87.0552 68.433 87.0552C68.2642 87.0552 65.7316 87.4773 65.3095 86.6331C64.8873 85.7889 65.1662 84.9856 65.3095 84.2693C65.3939 83.8472 65.225 83.1718 65.3095 82.4965C65.377 81.9562 65.3376 78.2754 65.3095 76.5026C64.8873 75.9961 64.06 74.6116 64.1276 73.1258C64.212 71.2685 62.4391 67.554 62.3547 66.8786C62.2703 66.2032 63.8743 64.8525 62.3547 64.5148C60.8351 64.1771 60.1598 64.5992 59.5688 65.1902C58.9779 65.7811 55.0101 69.8333 53.6594 70.4243C52.3086 71.0152 48.6293 73.4139 48.5941 73.8011C48.5097 74.7298 48.5941 74.2232 49.0162 74.983C49.4383 75.7428 51.0423 76.0805 51.4644 76.5026C51.8865 76.9247 52.5619 77.6001 52.8152 77.9377C53.0684 78.2754 54.0815 77.5156 54.8412 78.3598C55.601 79.204 58.8344 80.1573 59.2311 80.3015C60.1598 80.6392 62.0177 81.2354 62.1014 81.9055C62.3547 83.9316 60.9195 94.5687 59.6532 97.5234C59.4134 98.0829 57.5427 99.9716 56.3608 99.6339C55.1789 99.2962 54.6724 97.6922 54.588 97.1013C54.5036 96.5103 54.588 90.8541 54.588 90.0943C54.588 89.3346 54.588 88.0682 53.6594 87.0552C52.7031 86.012 50.9579 85.8733 50.8735 85.5356C50.8059 85.2655 50.7046 84.4944 50.4514 83.9316C46.7931 83.003 39.3223 80.0073 38.1259 79.0352C36.7752 77.9377 35.7621 76.6001 35.7621 75.2363C35.7621 73.8011 36.3953 72.2815 36.8596 71.3529C37.4505 70.171 41.756 62.742 42.2625 62.0666C42.7691 61.3913 44.7952 58.7742 45.2173 58.3521C45.6394 57.93 45.8082 56.1572 45.9771 55.2285C46.1459 54.2999 46.568 53.9622 46.8213 53.2024C47.0745 52.4426 47.159 50.1633 47.3278 49.2346C47.4966 48.306 46.8213 47.293 46.8213 46.7864C46.8213 46.2799 46.9901 44.2538 46.4836 43.494C45.9771 42.7342 45.2173 41.3835 44.7952 40.7926C44.3731 40.2016 44.2887 38.5976 44.2042 38.0067C44.1198 37.4157 44.0354 35.7273 43.6133 35.2208C43.1912 34.7142 42.7691 34.2921 41.756 33.7012C40.743 33.1103 40.4053 32.5193 40.152 31.9284C39.8988 31.3374 37.2817 31.9284 37.7038 31.3374C36.4656 31.0279 33.7867 30.4088 32.9762 30.4088C31.9632 30.4088 30.6125 29.9023 30.0215 29.9023C29.4306 29.9023 26.8135 30.4088 25.6316 30.4088C24.4497 30.4088 22.5925 29.4802 21.8327 29.4802H19.0468C18.2026 29.4802 16.7674 29.9023 16.1765 30.1555C15.5855 30.4088 13.6439 30.3244 13.3062 30.8309C12.9685 31.3374 12.2087 32.6881 11.6178 32.857C11.145 32.9921 10.464 32.9133 10.1826 32.857C10.1826 33.0258 10.0138 33.6168 9.3384 34.6298C8.49419 35.8961 6.63693 37.5846 5.96156 37.5846C5.28619 37.5846 4.1043 37.669 4.5264 37.2469C4.86409 36.9092 5.22991 36.4871 5.37061 36.3182C4.83594 36.5152 3.66531 36.9767 3.26009 37.2469C2.85487 37.517 2.30332 37.3594 2.07819 37.2469C2.80984 36.5152 4.3238 35.0351 4.5264 34.9675C4.72901 34.9 4.61082 34.7142 4.5264 34.6298C3.76661 35.1364 2.21327 36.1832 2.07819 36.3182C1.90935 36.4871 1.40283 36.6559 1.31841 36.3182C1.23398 35.9806 1.3184 35.6429 1.57167 35.3052C1.82493 34.9675 3.26009 34.0389 3.51335 33.87C3.71596 33.735 3.82289 33.3635 3.85103 33.1947C3.73847 33.1947 3.42893 33.2284 3.09124 33.3635C2.66914 33.5324 1.14956 34.9675 0.643038 34.9675C0.136512 34.9675 -0.11675 34.5454 0.0520915 34.3766C0.220933 34.2077 2.66914 32.1816 3.26009 32.1816C3.85103 32.1816 3.76661 31.7595 3.51335 31.6751C3.26009 31.5907 3.42891 31.5063 2.75355 31.4218C2.07819 31.3374 2.5003 31.6751 1.57167 31.6751C0.643038 31.6751 0.72745 31.3374 0.896292 31.0842C1.06513 30.8309 1.7405 30.7465 2.24703 30.5776C2.75355 30.4088 4.69523 30.3244 4.86407 29.9023C5.03292 29.4802 6.9746 28.8892 7.05902 28.6359C7.14344 28.3827 6.55249 27.9606 7.05902 27.4541C7.56554 26.9475 9.67605 26.6098 9.92933 26.5254C10.1826 26.441 13.475 24.5837 14.066 24.2461C14.6569 23.9084 14.8257 23.5707 15.8388 23.6551C16.8518 23.7395 18.2026 22.3044 18.6247 22.22C19.0468 22.1355 19.0468 23.233 20.1443 22.22C21.2417 21.2069 20.5664 20.8692 22.2548 20.7848C23.9432 20.7004 25.8849 20.7848 26.4758 21.0381C27.0668 21.2913 28.1642 21.7134 28.7552 21.5446C29.3461 21.3758 29.4306 20.7848 30.0215 20.7848C30.6124 20.7848 34.1581 20.3627 34.9179 20.7848C35.6777 21.2069 39.5611 20.616 40.152 20.3627C40.743 20.1094 43.0224 19.6873 43.6133 18.9275C44.2042 18.1678 44.8796 17.1547 45.8082 17.3235C46.7368 17.4924 47.2434 17.3235 48.0876 17.3235C48.9318 17.3235 50.0293 16.9859 50.1981 16.7326C50.3669 16.4793 50.5358 15.804 50.3669 15.5507C50.1981 15.2974 49.9448 14.9598 49.0162 13.9467C48.0876 12.9337 48.3408 12.5116 48.4253 12.1739C48.5097 11.8362 46.4836 9.55683 46.7368 8.71262C46.9901 7.86841 46.3992 4.91368 47.0745 4.40715C47.7796 3.87832 48.3408 3.47852 49.3539 2.972C49.9868 2.65556 51.2111 2.63431 51.2111 1.53684C51.2111 0.587091 51.1277 0.249494 51.0488 0.171884C51.0177 0.176541 50.9874 0.181283 50.9579 0.186108C50.9829 0.152692 51.0154 0.139117 51.0488 0.171884C52.4653 -0.0408006 55.3733 -0.0782486 55.7699 0.18611C56.2764 0.523795 57.3739 1.53684 57.3739 1.87452C57.3739 2.21221 58.2181 2.88757 58.2181 3.14084C58.2181 3.3941 58.3869 3.30968 58.7246 3.98505C58.9681 4.47206 59.0623 4.82925 59.2311 4.9981C59.2311 5.22322 59.3247 5.82303 59.4 6.01115C59.5688 6.43325 59.9909 7.61514 60.0753 7.95283C60.1598 8.29051 60.4414 9.7682 60.5819 9.97893C60.7507 10.2322 60.9196 11.1608 60.9196 11.5829V13.4402C60.9196 13.8623 60.7507 14.2844 60.3286 14.3688C59.9909 14.4364 59.2874 14.5658 58.9779 14.5377C58.4713 14.5377 58.4207 14.6558 58.2181 14.7909C58.0155 14.926 57.9648 15.607 58.0492 15.8884Z" fill="#CACACA"/>
</svg>
